<?xml version="1.0" standalone="no"?>
<svg viewBox="0 0 200 200" xmlns="http://www.w3.org/2000/svg">
  <path fill="#BAE6FF" d="M44.9,-72.6C58.7,-69.7,70.9,-58.8,73.8,-45.4C76.7,-32,70.4,-16,66.5,-2.3C62.6,11.5,61.1,22.9,58,36.1C54.9,49.2,50.2,64,40.3,74.9C30.3,85.8,15.2,92.9,1.5,90.3C-12.1,87.7,-24.3,75.4,-37.1,66.1C-49.8,56.8,-63.2,50.5,-72.5,40C-81.8,29.5,-87.1,14.7,-85,1.2C-82.9,-12.3,-73.4,-24.6,-63.9,-34.8C-54.3,-45,-44.8,-53.1,-34.2,-57.8C-23.6,-62.5,-11.8,-63.8,1.9,-67C15.5,-70.3,31,-75.4,44.9,-72.6Z" transform="translate(100 100)" />
</svg>
