<?xml version="1.0" standalone="no"?>
<svg viewBox="0 0 200 200" xmlns="http://www.w3.org/2000/svg">
  <path fill="#08BDBA" d="M40.2,-68.1C51.2,-63.2,58.6,-50.7,66.3,-38C74,-25.4,82,-12.7,84.8,1.6C87.6,15.9,85.2,31.9,78.2,45.7C71.1,59.4,59.4,71,45.6,75.1C31.8,79.2,15.9,75.7,2.2,72C-11.6,68.2,-23.1,64.1,-36.5,59.8C-49.9,55.5,-65.2,51,-72.8,41C-80.5,31,-80.4,15.5,-76.5,2.3C-72.6,-11,-64.8,-21.9,-57,-31.6C-49.1,-41.3,-41.3,-49.6,-31.8,-55.4C-22.3,-61.2,-11.2,-64.4,1.7,-67.3C14.6,-70.3,29.2,-73.1,40.2,-68.1Z" transform="translate(100 100)" />
</svg>
